@startuml
'https://plantuml.com/class-diagram

left header 13 objects
title nCino 2023 Fall - Product Catalog Summary - AutoGen

'skinparam classBorderThickness 0

hide circle
hide empty methods
hide empty fields

'legend right
'  Relationship
'    M = MasterDetail
'    xn = n-times
'  Field
'    bold = required
'    underline = MasterDetail
'endlegend


entity ReconciliationService as "<b>Reconciliation Service</b> \nLLC_BI__Reconciliation_Service__c"  {
}
entity ProductStateConfig as "<b>Product State Config</b> \nLLC_BI__Product_State_Config__c"  {
}
entity TreasuryService as "<b>Treasury Service</b> \nLLC_BI__Treasury_Service__c"  {
}
entity ProductLine as "<b>Product Line</b> \nLLC_BI__Product_Line__c"  {
}
entity ProductType as "<b>Product Type</b> \nLLC_BI__Product_Type__c"  {
}
entity Product as "<b>Product</b> \nLLC_BI__Product__c"  {
}
entity ProductStateConfigPivot as "<b>Product State Config Pivot</b> \nLLC_BI__Product_State_Config_Pivot__c"  {
}
entity BillPoint as "<b>Bill Point</b> \nLLC_BI__Bill_Point__c"  {
}
entity ProductFundingMethodType as "<b>Product Funding Method Type</b> \nLLC_BI__Product_Funding_Method_Type__c"  {
}
entity ProductFeature as "<b>Product Feature</b> \nLLC_BI__Product_Feature__c"  {
}
entity ProductConnection as "<b>Product Connection</b> \nLLC_BI__Product_Connection__c"  {
}
entity Loan as "<b>Loan</b> \nLLC_BI__Loan__c"  {
}
entity Deposit as "<b>Deposit</b> \nLLC_BI__Deposit__c"  {
}

ProductType }o--o| ProductStateConfigPivot: x4
Product }o--|| ProductType: M
Product }o--o| ProductFeature
ReconciliationService }o--o| Product
Deposit }o--o| Product
TreasuryService }o--o| ReconciliationService
ProductStateConfig }o--|| ProductType: M
BillPoint }o--o| ProductType
BillPoint }o--o| Product
Deposit }o--o| Deposit: x2
Loan }o--o| Loan: x3
ProductConnection }o--o| Product: x2
ProductFundingMethodType }o--|| Product: M
ProductType }o--|| ProductLine: M
ReconciliationService }o--o| TreasuryService
Loan }o--o| Product
TreasuryService }o--o| Product

@enduml
