@startuml
'https://plantuml.com/class-diagram

left header 23 objects
title nCino 2023 Fall - Spreads Summary - AutoGen

'skinparam classBorderThickness 0

hide circle
hide empty methods
hide empty fields

'legend right
'  Relationship
'    M = MasterDetail
'    xn = n-times
'  Field
'    bold = required
'    underline = MasterDetail
'endlegend


entity SpreadStatementRecord as "<b>Spread Statement Record</b> \nLLC_BI__Spread_Statement_Record__c"  {
}
entity D_SpreadStatementRecordGroup as "<b>-D Spread Statement Record Group</b> \nLLC_BI__Spread_Statement_Record_Group__c"  {
}
entity SpreadRecordClassification as "<b>Spread Record Classification</b> \nLLC_BI__Spread_Record_Classification__c"  {
}
entity PeriodConsolidation as "<b>Period Consolidation</b> \nLLC_BI__Period_Consolidation__c"  {
}
entity SpreadStatementRecordValue as "<b>Spread Statement Record Value</b> \nLLC_BI__Spread_Statement_Record_Value__c"  {
}
entity SpreadStatementPeriod as "<b>Spread Statement Period</b> \nLLC_BI__Spread_Statement_Period__c"  {
}
entity SpreadStatementView as "<b>Spread Statement View</b> \nLLC_BI__Spread_Statement_View__c"  {
}
entity SpreadStatementTemplate as "<b>Spread Statement Template</b> \nLLC_BI__Spread_Statement_Type__c"  {
}
entity TenantInformation as "<b>Tenant Information</b> \nLLC_BI__Tenant_Information__c"  {
}
entity User as "<b>User</b> \nUser" #lightblue {
}
entity CovenantCompliance as "<b>Covenant Compliance</b> \nLLC_BI__Covenant_Compliance2__c"  {
}
entity Relationship as "<b>Relationship</b> \nAccount" #lightblue {
}
entity UnderwritingBundle as "<b>Underwriting Bundle</b> \nLLC_BI__Underwriting_Bundle__c"  {
}
entity Loan as "<b>Loan</b> \nLLC_BI__Loan__c"  {
}
entity UnderwritingSummary as "<b>Underwriting Summary</b> \nLLC_BI__Underwriting_Summary__c"  {
}
entity Spread as "<b>Spread</b> \nLLC_BI__Spread__c"  {
}
entity EntityInvolvement as "<b>Entity Involvement</b> \nLLC_BI__Legal_Entities__c"  {
}
entity CovenantMgmt as "<b>Covenant Mgmt</b> \nLLC_BI__Covenant2__c"  {
}
entity FinancialConsolidation as "<b>Financial Consolidation</b> \nLLC_BI__Financial_Consolidation__c"  {
}
entity SpreadRecordTotalClassification as "<b>Spread Record Total Classification</b> \nLLC_BI__Spread_Record_Total_Classification__c"  {
}
entity SpreadStatementTotalGroup as "<b>Spread Statement Total Group</b> \nLLC_BI__Spread_Statement_Record_Total__c"  {
}
entity D_SpreadStatementGroupTotal as "<b>-D Spread Statement Group Total</b> \nLLC_BI__Spread_Statement_Group_Total__c"  {
}
entity SpreadStatementPeriodTotal as "<b>Spread Statement Period Total</b> \nLLC_BI__Spread_Statement_Period_Total__c"  {
}

Loan }o--o| Relationship: x2
CovenantMgmt }o--o| SpreadStatementRecord
SpreadStatementTemplate }o--o| SpreadStatementTotalGroup: x2
CovenantCompliance }o--|| CovenantMgmt: M
Loan }o--o| UnderwritingSummary
SpreadStatementPeriodTotal }o--|| SpreadStatementPeriod: M
SpreadStatementRecord }o--o| SpreadStatementRecord: x4
Loan }o--o| Loan: x3
SpreadStatementPeriod }o--|| SpreadStatementTemplate: M
UnderwritingBundle }o--o| Relationship
SpreadStatementTotalGroup }o--|| SpreadStatementTemplate: M
CovenantMgmt }o--o| Relationship
UnderwritingBundle }o--o| FinancialConsolidation
SpreadStatementPeriod }o--o| User
SpreadStatementRecordValue }o--|| SpreadStatementPeriod: M
SpreadStatementRecordValue }o--|| SpreadStatementRecord: M
EntityInvolvement }o--o| Loan
SpreadStatementPeriodTotal }o--|| SpreadStatementTotalGroup: M
SpreadStatementTotalGroup }o--o| SpreadStatementTotalGroup
SpreadStatementRecord }o--o| SpreadStatementTotalGroup: x2
D_SpreadStatementRecordGroup }o--|| SpreadStatementRecord: M
Relationship }o--o| Relationship
SpreadStatementTemplate }o--o| SpreadStatementTemplate
D_SpreadStatementGroupTotal }o--|| SpreadStatementTotalGroup: M
SpreadStatementView }o--|| SpreadStatementTemplate: M
EntityInvolvement }o--o| Relationship
Loan }o--o| User: x5
TenantInformation }o--o| TenantInformation
TenantInformation }o--o| Relationship
UnderwritingBundle }o--o| UnderwritingBundle: x2
Spread }o--|| UnderwritingSummary
SpreadStatementTemplate }o--o| SpreadStatementRecord
PeriodConsolidation }o--|| SpreadStatementPeriod: x2
EntityInvolvement }o--|| Relationship: M
SpreadStatementPeriod }o--o| SpreadStatementPeriod: x4
CovenantCompliance }o--o| SpreadStatementPeriod
Spread }o--|| SpreadStatementTemplate: M
TenantInformation }o--o| SpreadStatementPeriod
Spread }o--o| Loan
Relationship }o--|| User
CovenantMgmt }o--o| CovenantMgmt
SpreadRecordClassification }o--|| SpreadStatementRecord: M
CovenantCompliance }o--o| User: x2
SpreadStatementRecord }o--|| SpreadStatementTemplate: M
Spread }o--o| EntityInvolvement
SpreadRecordTotalClassification }o--|| SpreadStatementTotalGroup: M
SpreadStatementTemplate }o--o| UnderwritingBundle
TenantInformation }o--o| SpreadStatementTemplate
CovenantMgmt }o--o| SpreadStatementTotalGroup
PeriodConsolidation }o--o| SpreadStatementPeriod
User }o--o| Relationship

@enduml
