@startuml
'https://plantuml.com/class-diagram

left header 10 objects
title nCino 2023 Fall - Loan Summary - AutoGen

'skinparam classBorderThickness 0

hide circle
hide empty methods
hide empty fields

'legend right
'  Relationship
'    M = MasterDetail
'    xn = n-times
'  Field
'    bold = required
'    underline = MasterDetail
'endlegend


entity AdverseAction as "<b>Adverse Action</b> \nLLC_BI__Adverse_Action__c"  {
}
entity ThirdPartyReport as "<b>Third Party Report</b> \nLLC_BI__third_party_report__c"  {
}
entity EntityInvolvement as "<b>Entity Involvement</b> \nLLC_BI__Legal_Entities__c"  {
}
entity Loan as "<b>Loan</b> \nLLC_BI__Loan__c"  {
}
entity LoanModification as "<b>Loan Modification</b> \nLLC_BI__Loan_Modification__c"  {
}
entity Participation as "<b>Participation</b> \nLLC_BI__Participation__c"  {
}
entity Statistic as "<b>Statistic</b> \nLLC_BI__Statistic__c"  {
}
entity LoanRenewal as "<b>LoanRenewal</b> \nLLC_BI__LoanRenewal__c"  {
}
entity Memo as "<b>Memo</b> \nLLC_BI__Credit_Memo_Modifcation__c"  {
}
entity Memo_Data as "<b>Memo_Data</b> \nLLC_BI__Memo_Data__c"  {
}

Statistic }o--o| Loan
AdverseAction }o--|| Loan: M
LoanRenewal }o--|| Loan: M
EntityInvolvement }o--o| Loan
Memo }o--|| Loan: M
Loan }o--o| Loan: x3
LoanRenewal }o--o| Loan: x2
ThirdPartyReport }o--|| Loan: M
Memo_Data }o--|| Memo: M
Participation }o--|| Loan: M
LoanModification }o--|| Loan: M
Memo }o--o| LoanRenewal

@enduml
