@startuml
'https://plantuml.com/class-diagram

left header 8 objects
title nCino 2023 Fall - Smart Checklist Summary - AutoGen

'skinparam classBorderThickness 0

hide circle
hide empty methods
hide empty fields

'legend right
'  Relationship
'    M = MasterDetail
'    xn = n-times
'  Field
'    bold = required
'    underline = MasterDetail
'endlegend


entity CollateralPledged as "<b>Collateral Pledged</b> \nLLC_BI__Loan_Collateral2__c"  {
}
entity TreasuryService as "<b>Treasury Service</b> \nLLC_BI__Treasury_Service__c"  {
}
entity Relationship as "<b>Relationship</b> \nAccount" #lightblue {
}
entity ProductPackage as "<b>Product Package</b> \nLLC_BI__Product_Package__c"  {
}
entity Checklist as "<b>Checklist</b> \nLLC_BI__Checklist__c"  {
}
entity Loan as "<b>Loan</b> \nLLC_BI__Loan__c"  {
}
entity Requirement as "<b>Requirement</b> \nLLC_BI__Requirement__c"  {
}
entity ChecklistAutoGeneration as "<b>Checklist Auto Generation</b> \nLLC_BI__Checklist_Auto_Gen__e"  {
}

Requirement }o--|| Checklist
Loan }o--o| Relationship: x2
Checklist }o--o| Relationship
Checklist }o--o| TreasuryService
Checklist }o--o| Loan
Checklist }o--o| ProductPackage
Loan }o--o| Loan: x3
CollateralPledged }o--|| Loan
TreasuryService }o--o| ProductPackage
ProductPackage }o--o| Relationship: x2
Checklist }o--o| CollateralPledged
TreasuryService }o--o| Relationship
Relationship }o--o| Relationship
Loan }o--o| ProductPackage

@enduml
