@startuml
'https://plantuml.com/class-diagram

left header 22 objects
title nCino 2023 Fall - Deposit Summary - AutoGen

'skinparam classBorderThickness 0

hide circle
hide empty methods
hide empty fields

'legend right
'  Relationship
'    M = MasterDetail
'    xn = n-times
'  Field
'    bold = required
'    underline = MasterDetail
'endlegend


entity ProductLine as "<b>Product Line</b> \nLLC_BI__Product_Line__c"  {
}
entity ProductType as "<b>Product Type</b> \nLLC_BI__Product_Type__c"  {
}
entity Product as "<b>Product</b> \nLLC_BI__Product__c"  {
}
entity ProductFeature as "<b>Product Feature</b> \nLLC_BI__Product_Feature__c"  {
}
entity DepositRateStructure as "<b>Deposit Rate Structure</b> \nLLC_BI__Deposit_Rate_Structure__c"  {
}
entity Tier as "<b>Tier</b> \nLLC_BI__Tier__c"  {
}
entity TreasuryService as "<b>Treasury Service</b> \nLLC_BI__Treasury_Service__c"  {
}
entity Deposit as "<b>Deposit</b> \nLLC_BI__Deposit__c"  {
}
entity FundingMethodType as "<b>Funding Method Type</b> \nLLC_BI__Funding_Method_Type__c"  {
}
entity FundingMethod as "<b>Funding Method</b> \nLLC_BI__Funding_Method__c"  {
}
entity ProductPackage as "<b>Product Package</b> \nLLC_BI__Product_Package__c"  {
}
entity Contact as "<b>Contact</b> \nContact" #lightblue {
}
entity AuthorizedUser as "<b>Authorized User</b> \nLLC_BI__Authorized_User__c"  {
}
entity OwnershipStructureType as "<b>Ownership Structure Type</b> \nLLC_BI__Ownership_Structure_Type__c"  {
}
entity Beneficiary as "<b>Beneficiary</b> \nLLC_BI__Beneficiary__c"  {
}
entity AnalyzedAccount as "<b>Analyzed Account</b> \nLLC_BI__Analyzed_Account__c"  {
}
entity AuthorizedSigner as "<b>Authorized Signer</b> \nLLC_BI__Contingent_Liabilty__c"  {
}
entity OwnershipStructureRole as "<b>Ownership Structure Role</b> \nLLC_BI__Ownership_Structure_Role__c"  {
}
entity AuthorizedAccount as "<b>Authorized Account</b> \nLLC_BI__Authorized_Account__c"  {
}
entity Relationship as "<b>Relationship</b> \nAccount" #lightblue {
}
entity EntityInvolvement as "<b>Entity Involvement</b> \nLLC_BI__Legal_Entities__c"  {
}
entity Branch as "<b>Branch</b> \nLLC_BI__Branch__c"  {
}

Deposit }o--o| Relationship: x2
Deposit }o--o| Contact
Product }o--|| ProductType: M
AuthorizedUser }o--o| Contact
Deposit }o--o| Branch
AnalyzedAccount }o--o| TreasuryService: x2
Product }o--o| DepositRateStructure
AuthorizedAccount }o--o| OwnershipStructureRole
EntityInvolvement }o--o| Relationship
Deposit }o--o| Product
EntityInvolvement }o--o| TreasuryService
Deposit }o--o| Deposit: x2
AuthorizedSigner }o--o| AuthorizedSigner
Contact }o--o| Relationship
AnalyzedAccount }o--o| Relationship
AuthorizedSigner }o--o| OwnershipStructureRole
AuthorizedSigner }o--o| AuthorizedAccount
Deposit }o--o| OwnershipStructureType
Deposit }o--o| DepositRateStructure
TreasuryService }o--o| Relationship
AuthorizedUser }o--o| TreasuryService
EntityInvolvement }o--|| Relationship: M
Tier }o--o| DepositRateStructure
Beneficiary }o--o| Deposit
TreasuryService }o--o| Product
AuthorizedSigner }o--|| Contact: M
Product }o--o| ProductFeature
AuthorizedAccount }o--|| EntityInvolvement: M
Tier }o--o| Tier
Tier }o--o| Deposit
TreasuryService }o--o| Branch
AuthorizedSigner }o--|| EntityInvolvement: M
OwnershipStructureRole }o--|| OwnershipStructureType: M
EntityInvolvement }o--o| ProductPackage
TreasuryService }o--o| ProductPackage
AnalyzedAccount }o--o| Deposit: x2
FundingMethod }o--o| FundingMethodType
ProductPackage }o--o| Relationship: x2
Deposit }o--o| FundingMethod
Contact }o--o| Contact: x2
EntityInvolvement }o--o| Deposit
AuthorizedAccount }o--|| Relationship: M
Relationship }o--o| Branch
AuthorizedAccount }o--o| AuthorizedAccount
Relationship }o--o| Relationship
ProductType }o--|| ProductLine: M
Deposit }o--o| ProductPackage
Beneficiary }o--o| Relationship

@enduml
